<svg width="14" height="18" viewBox="0 0 14 18" fill="none" xmlns="http://www.w3.org/2000/svg">
<path d="M11.375 12.6C10.8337 12.601 10.3061 12.7747 9.86475 13.097C9.42345 13.4194 9.09022 13.8747 8.911 14.4H6.125C4.67775 14.4 3.5 13.1886 3.5 11.7V8.9775C4.25314 9.57245 5.17538 9.89655 6.125 9.9H8.911C9.09022 10.4253 9.42345 10.8806 9.86475 11.203C10.3061 11.5253 10.8337 11.699 11.375 11.7C12.0712 11.7 12.7389 11.4155 13.2312 10.9092C13.7234 10.4028 14 9.71608 14 9C14 8.28392 13.7234 7.59716 13.2312 7.09081C12.7389 6.58446 12.0712 6.3 11.375 6.3C10.8337 6.301 10.3061 6.47465 9.86475 6.79704C9.42345 7.11942 9.09022 7.57465 8.911 8.1H6.125C4.67775 8.1 3.5 6.8886 3.5 5.4V5.2344C4.01075 5.05006 4.45334 4.70731 4.76677 4.2534C5.0802 3.79948 5.24903 3.25675 5.25 2.7C5.25 2.34543 5.1821 1.99433 5.05018 1.66675C4.91827 1.33918 4.72491 1.04153 4.48116 0.790812C4.2374 0.540093 3.94802 0.341213 3.62954 0.205525C3.31106 0.0698375 2.96972 0 2.625 0C2.28028 0 1.93894 0.0698375 1.62046 0.205525C1.30198 0.341213 1.0126 0.540093 0.768845 0.790812C0.525091 1.04153 0.331735 1.33918 0.199816 1.66675C0.0678978 1.99433 -5.13673e-09 2.34543 0 2.7C0.000968314 3.25675 0.169801 3.79948 0.483229 4.2534C0.796657 4.70731 1.23925 5.05006 1.75 5.2344V11.7C1.75 14.1813 3.71263 16.2 6.125 16.2H8.911C9.09022 16.7253 9.42345 17.1806 9.86475 17.503C10.3061 17.8253 10.8337 17.999 11.375 18C12.0712 18 12.7389 17.7155 13.2312 17.2092C13.7234 16.7028 14 16.0161 14 15.3C14 14.5839 13.7234 13.8972 13.2312 13.3908C12.7389 12.8845 12.0712 12.6 11.375 12.6ZM11.375 8.1C11.5483 8.09982 11.7178 8.15253 11.8619 8.25145C12.0061 8.35038 12.1185 8.49107 12.1849 8.65572C12.2513 8.82038 12.2687 9.00159 12.235 9.17644C12.2012 9.35128 12.1178 9.51188 11.9952 9.63793C11.8727 9.76398 11.7165 9.8498 11.5465 9.88453C11.3765 9.91926 11.2004 9.90135 11.0403 9.83305C10.8802 9.76475 10.7434 9.64914 10.6472 9.50085C10.5511 9.35256 10.4998 9.17826 10.5 9C10.5 8.5041 10.892 8.1 11.375 8.1ZM2.625 1.8C2.79831 1.79982 2.96777 1.85253 3.11194 1.95145C3.25611 2.05038 3.36851 2.19107 3.43491 2.35572C3.50131 2.52038 3.51873 2.70159 3.48496 2.87644C3.45119 3.05128 3.36776 3.21188 3.24521 3.33793C3.12267 3.46398 2.96652 3.5498 2.79653 3.58453C2.62655 3.61927 2.45037 3.60135 2.29029 3.53305C2.13021 3.46475 1.99342 3.34914 1.89725 3.20085C1.80107 3.05256 1.74983 2.87826 1.75 2.7C1.75 2.2041 2.142 1.8 2.625 1.8ZM11.375 16.2C11.1497 16.1896 10.937 16.0903 10.7811 15.9226C10.6253 15.755 10.5383 15.532 10.5383 15.3C10.5383 15.068 10.6253 14.845 10.7811 14.6774C10.937 14.5097 11.1497 14.4104 11.375 14.4C11.6003 14.4104 11.813 14.5097 11.9689 14.6774C12.1247 14.845 12.2117 15.068 12.2117 15.3C12.2117 15.532 12.1247 15.755 11.9689 15.9226C11.813 16.0903 11.6003 16.1896 11.375 16.2Z" fill="#545C6A"/>
</svg>
